<?xml version="1.0" encoding="iso-8859-1"?>
<!-- Generator: Adobe Illustrator 16.0.0, SVG Export Plug-In . SVG Version: 6.00 Build 0)  -->
<!DOCTYPE svg PUBLIC "-//W3C//DTD SVG 1.1//EN" "http://www.w3.org/Graphics/SVG/1.1/DTD/svg11.dtd">
<svg version="1.1" id="Capa_1" xmlns="http://www.w3.org/2000/svg" xmlns:xlink="http://www.w3.org/1999/xlink" x="0px" y="0px"
	 width="45.001px" height="45.001px" viewBox="0 0 45.001 45.001" style="enable-background:new 0 0 45.001 45.001;"
	 xml:space="preserve">
<g>
	<path d="M43.604,41.146c0.703,0.64,0.945,2.207,0.037,3.107c-0.902,0.909-2.472,0.668-3.109-0.034
		c-5.893-6.328-11.783-12.659-17.676-18.989l-0.67-0.715c-6.164,6.618-12.326,13.239-18.488,19.86
		c-0.635,0.701-2.202,0.943-3.104,0.034c-0.91-0.901-0.67-2.472,0.032-3.109c6.642-6.178,13.279-12.358,19.92-18.539
		c0,0-3.214-3.467-4.6-4.955c-3.243,2.325-8.049,1.441-10.938-2.126C1.901,11.917-0.779,5.187,1.815,2.431
		c2.759-2.596,9.485,0.09,13.248,3.194c3.566,2.892,4.455,7.691,2.125,10.936c1.67,1.556,3.34,3.108,5.012,4.663
		c-0.004,0.003-0.006,0.005-0.01,0.008c0,0,0.104,0.082,0.01-0.008c1.562-1.455,3.125-2.909,4.688-4.364
		c-1.32-2.254-0.443-5.415,1.701-7.219c2.459-2.061,11.57-9.883,11.815-9.635c0.244,0.243-6.146,6.281-10.415,10.563l0.712,0.711
		c4.557-3.994,10.99-9.984,11.238-9.74c0.244,0.245-5.946,6.48-10.076,10.905l0.707,0.705C36.988,9.017,43.225,2.826,43.467,3.069
		c0.245,0.246-5.746,6.68-9.74,11.237l0.707,0.706c4.28-4.269,10.315-10.659,10.562-10.417c0.247,0.246-9.618,11.805-9.632,11.822
		c-0.002-0.002,2.094-2.462-0.008-0.006c-2.006,2.347-5.002,3.057-7.217,1.705c-1.438,1.543-2.873,3.086-4.309,4.629
		C23.704,22.626,37.014,35.013,43.604,41.146z"/>
</g>
<g>
</g>
<g>
</g>
<g>
</g>
<g>
</g>
<g>
</g>
<g>
</g>
<g>
</g>
<g>
</g>
<g>
</g>
<g>
</g>
<g>
</g>
<g>
</g>
<g>
</g>
<g>
</g>
<g>
</g>
</svg>
