<?xml version="1.0" encoding="iso-8859-1"?>
<!-- Generator: Adobe Illustrator 16.0.0, SVG Export Plug-In . SVG Version: 6.00 Build 0)  -->
<!DOCTYPE svg PUBLIC "-//W3C//DTD SVG 1.1//EN" "http://www.w3.org/Graphics/SVG/1.1/DTD/svg11.dtd">
<svg version="1.1" id="Capa_1" xmlns="http://www.w3.org/2000/svg" xmlns:xlink="http://www.w3.org/1999/xlink" x="0px" y="0px"
	 width="45.001px" height="45.001px" viewBox="0 0 45.001 45.001" style="enable-background:new 0 0 45.001 45.001;"
	 xml:space="preserve">
<g>
	<g>
		<path d="M40.922,32.044c-0.197-3.417-1.297-6.532-3.225-9c0.227-1.729-0.135-3.421-1-4.826l3.383-2.922
			c0.02,0.031,0.025,0.063,0.043,0.092c0.502,0.807,1.561,1.054,2.365,0.552c0.805-0.501,1.057-1.562,0.557-2.369
			c-0.277-0.451-0.736-0.72-1.221-0.789c0.154-0.466,0.115-0.994-0.164-1.446c-0.502-0.808-1.561-1.054-2.365-0.553
			c-0.807,0.501-1.059,1.563-0.557,2.37c0.02,0.029,0.045,0.051,0.062,0.079l-3.748,3.15c-0.84-0.681-1.824-1.208-2.949-1.471
			c-2.832-0.661-5.639,0.426-7.36,2.535c-9.449,0.208-19.186,7.329-20.114,14.596H0c0,1.344,1.088,2.435,2.434,2.435h40.134
			c1.345,0,2.433-1.091,2.433-2.435h-4.078L40.922,32.044L40.922,32.044z"/>
	</g>
</g>
<g>
</g>
<g>
</g>
<g>
</g>
<g>
</g>
<g>
</g>
<g>
</g>
<g>
</g>
<g>
</g>
<g>
</g>
<g>
</g>
<g>
</g>
<g>
</g>
<g>
</g>
<g>
</g>
<g>
</g>
</svg>
