<?xml version="1.0" encoding="iso-8859-1"?>
<!-- Generator: Adobe Illustrator 16.0.0, SVG Export Plug-In . SVG Version: 6.00 Build 0)  -->
<!DOCTYPE svg PUBLIC "-//W3C//DTD SVG 1.1//EN" "http://www.w3.org/Graphics/SVG/1.1/DTD/svg11.dtd">
<svg version="1.1" id="Capa_1" xmlns="http://www.w3.org/2000/svg" xmlns:xlink="http://www.w3.org/1999/xlink" x="0px" y="0px"
	 width="487.471px" height="487.471px" viewBox="0 0 487.471 487.471" style="enable-background:new 0 0 487.471 487.471;"
	 xml:space="preserve">
<g>
	<g id="_x31_6_64_">
		<path d="M484.826,292.073c-3.248-16.911-13.512-30.091-28.871-39.032c-12.453-8.384-27.701-13.38-44.232-13.38
			c-1.15,0-26.611,0.005-29.029,0.005l-46.02,44.227c-10.082,9.636-21.977,13.545-26.564,8.745l-6.236-6.526
			c-4.586-4.804-0.135-16.507,9.949-26.139l37.082-35.421c-5.766-4.077-11.68-8.819-17.662-14.042l-56.598,54.065
			c-10.084,9.635-21.976,13.545-26.566,8.745l-6.233-6.527c-4.589-4.804-0.135-16.508,9.949-26.139l55.489-53.004
			c-5.811-5.953-11.568-12.094-17.205-18.275l-37.704,36.016l-34.285,32.75c-10.082,9.635-21.975,13.544-26.563,8.745l-6.234-6.527
			c-4.589-4.803-0.135-16.508,9.949-26.139c0,0,25.556-28.032,37.828-38.815c12.272-10.783,35.035-30.786,35.035-30.786
			c-18.277-21.021-33.638-39.35-42.523-47.005c-26.91-23.181-56.988,19.025-40.718,44.493
			c11.523,23.722-20.336,63.327-70.496,54.516c-50.159-8.811-58.292-55.583-69.137-65.07C36.384,122.065,0,122.449,0,147.406
			c0,24.958,0.124,178.667,0.124,200.292c-2.033,19.658,21.347,48.88,47.782,48.88s71.155,0,86.084,0
			c14.925,0,32.535-32.535,57.614-32.535c25.078,0,50.836,32.535,66.425,32.535c15.59,0,119.295,0,147.086,0
			s63.289-39.285,65.939-42.404c0.086-0.09,0.18-0.179,0.268-0.266c0.037-0.066,0.064-0.129,0.102-0.194
			c10.02-11.98,16.047-27.013,16.047-43.388C487.469,303.999,486.494,297.903,484.826,292.073z"/>
	</g>
</g>
<g>
</g>
<g>
</g>
<g>
</g>
<g>
</g>
<g>
</g>
<g>
</g>
<g>
</g>
<g>
</g>
<g>
</g>
<g>
</g>
<g>
</g>
<g>
</g>
<g>
</g>
<g>
</g>
<g>
</g>
</svg>
