<?xml version="1.0" encoding="iso-8859-1"?>
<!-- Generator: Adobe Illustrator 16.0.0, SVG Export Plug-In . SVG Version: 6.00 Build 0)  -->
<!DOCTYPE svg PUBLIC "-//W3C//DTD SVG 1.1//EN" "http://www.w3.org/Graphics/SVG/1.1/DTD/svg11.dtd">
<svg version="1.1" id="Capa_1" xmlns="http://www.w3.org/2000/svg" xmlns:xlink="http://www.w3.org/1999/xlink" x="0px" y="0px"
	 width="488.66px" height="488.66px" viewBox="0 0 488.66 488.66" style="enable-background:new 0 0 488.66 488.66;"
	 xml:space="preserve">
<g>
	<g id="_x31_0_41_">
		<g>
			<path d="M403.615,305.802c-37.047,0-68.537,23.688-80.203,56.738H165.25c-11.666-33.05-43.16-56.738-80.203-56.738
				C38.076,305.802,0,343.878,0,390.849s38.076,85.047,85.047,85.047c37.043,0,68.537-23.688,80.203-56.738h158.162
				c11.666,33.051,43.156,56.738,80.203,56.738c46.971,0,85.045-38.074,85.045-85.047
				C488.66,343.878,450.586,305.802,403.615,305.802z"/>
			<path d="M116.16,270.74c35.484-10.633,58.854-42.364,60.543-77.371l151.507-45.397c20.658,28.312,57.627,41.964,93.112,31.332
				c44.995-13.482,70.54-60.884,57.057-105.88c-13.48-44.995-60.884-70.54-105.878-57.059C337.016,27,313.646,58.729,311.958,93.737
				l-151.505,45.396c-20.661-28.31-57.63-41.962-93.115-31.331c-44.995,13.483-70.54,60.884-57.058,105.88
				C23.764,258.677,71.165,284.222,116.16,270.74z"/>
		</g>
	</g>
</g>
<g>
</g>
<g>
</g>
<g>
</g>
<g>
</g>
<g>
</g>
<g>
</g>
<g>
</g>
<g>
</g>
<g>
</g>
<g>
</g>
<g>
</g>
<g>
</g>
<g>
</g>
<g>
</g>
<g>
</g>
</svg>
